<svg width="88" height="35" viewBox="0 0 88 35" fill="none" xmlns="http://www.w3.org/2000/svg">
<path id="Exclude" fill-rule="evenodd" clip-rule="evenodd" d="M22.9934 0.0610352H15.8841V18.8636C15.8841 21.3079 14.2789 22.7596 11.6803 22.7596C9.08296 22.7596 7.70667 20.8496 7.70667 18.7859V15.4243H0.826782V18.8636C0.826782 22.3771 1.8965 28.6486 11.7568 28.6486C21.6159 28.6486 22.9934 21.92 22.9934 18.7118V0.0610352ZM66.7171 34.9923V8.62032H73.2939V9.69003C73.2939 11.117 73.8694 10.5286 74.3331 9.97246L74.3354 9.96971C74.4359 9.84903 75.9047 8.08541 79.1775 8.08541C82.4687 8.08541 87.5886 10.378 87.5886 18.4812C87.5886 24.7491 84.5341 29.3347 79.2588 29.3347C76.352 29.3347 74.6715 28.1902 74.2872 27.7283C73.9024 27.2728 73.3681 27.1933 73.3681 27.7283V34.9923H66.7171ZM73.2145 18.7119C73.1439 22.6079 73.9853 24.6715 77.1969 24.6715C80.4033 24.6715 80.8634 21.1563 80.8634 18.4812C80.8634 15.8046 80.255 13.2061 76.8863 13.2061C74.8197 13.2061 73.2939 14.8119 73.2145 18.7119ZM37.8612 15.8829C37.8612 13.9699 36.7932 12.1357 34.3471 12.1357C31.9776 12.1357 31.1361 13.8157 31.1361 15.8829H37.8612ZM44.1345 19.8563C44.1345 9.99548 39.2446 7.85596 33.6616 7.85596C27.1642 7.85596 24.2615 13.8155 24.2615 18.939C24.2615 24.0606 27.549 29.0293 34.2736 29.0293C40.1608 29.1052 44.0597 25.2834 44.0597 22.4542H37.5605C37.5605 22.4542 36.7967 24.2901 34.503 24.2901C32.21 24.2901 30.9118 22.9903 30.9118 19.8563H44.1345ZM58.9993 15.8829C58.9993 13.9699 57.9301 12.1357 55.484 12.1357C53.1157 12.1357 52.2724 13.8157 52.2724 15.8829H58.9993ZM65.2707 19.8563C65.2707 9.99548 60.3821 7.85596 54.7996 7.85596C48.304 7.85596 45.3978 13.8155 45.3978 18.939C45.3978 24.0606 48.6852 29.0293 55.4134 29.0293C61.2988 29.1052 65.1983 25.2834 65.1983 22.4542H58.6992C58.6992 22.4542 57.9342 24.2901 55.6429 24.2901C53.348 24.2901 52.0487 22.9903 52.0487 19.8563H65.2707ZM83.2354 31.8309C83.2354 30.7865 84.0856 29.938 85.1336 29.938C86.1782 29.938 87.0267 30.7865 87.0267 31.8309C87.0267 32.8736 86.1782 33.7275 85.1336 33.7275C84.0857 33.7275 83.2354 32.8736 83.2354 31.8309ZM85.1336 33.9478C83.9627 33.9478 83.0165 32.9992 83.0165 31.8306C83.0165 30.6619 83.9627 29.7134 85.1336 29.7134C86.297 29.7134 87.2484 30.6619 87.2484 31.8306C87.2484 32.9992 86.297 33.9478 85.1336 33.9478Z" fill="#ABAFC7"/>
</svg>
