<svg width="40" height="41" viewBox="0 0 40 41" fill="none" xmlns="http://www.w3.org/2000/svg">
<rect y="0.830078" width="40" height="40" rx="20" fill="#4C40F7"/>
<path d="M15.322 17.6283C16.1276 17.6283 16.7807 16.9752 16.7807 16.1696C16.7807 15.364 16.1276 14.7109 15.322 14.7109C14.5164 14.7109 13.8633 15.364 13.8633 16.1696C13.8633 16.9752 14.5164 17.6283 15.322 17.6283Z" fill="white"/>
<path d="M18.158 18.7332V26.8259H20.6707V22.8239C20.6707 21.7679 20.8693 20.7452 22.1787 20.7452C23.47 20.7452 23.486 21.9525 23.486 22.8905V26.8265H26V22.3885C26 20.2085 25.5307 18.5332 22.9827 18.5332C21.7593 18.5332 20.9393 19.2045 20.604 19.8399H20.57V18.7332H18.158ZM14.0633 18.7332H16.58V26.8259H14.0633V18.7332Z" fill="white"/>
</svg>
