<svg width="40" height="41" viewBox="0 0 40 41" fill="none" xmlns="http://www.w3.org/2000/svg">
<rect y="0.830078" width="40" height="40" rx="20" fill="#4C40F7"/>
<path d="M19.9993 17.748C19.1817 17.748 18.3977 18.0728 17.8195 18.6509C17.2414 19.2291 16.9167 20.0131 16.9167 20.8307C16.9167 21.6483 17.2414 22.4324 17.8195 23.0105C18.3977 23.5886 19.1817 23.9134 19.9993 23.9134C20.8169 23.9134 21.601 23.5886 22.1791 23.0105C22.7572 22.4324 23.082 21.6483 23.082 20.8307C23.082 20.0131 22.7572 19.2291 22.1791 18.6509C21.601 18.0728 20.8169 17.748 19.9993 17.748ZM19.9993 22.8327C19.4682 22.8327 18.9588 22.6217 18.5832 22.2461C18.2077 21.8706 17.9967 21.3612 17.9967 20.83C17.9967 20.2989 18.2077 19.7895 18.5832 19.4139C18.9588 19.0384 19.4682 18.8274 19.9993 18.8274C20.5305 18.8274 21.0399 19.0384 21.4154 19.4139C21.791 19.7895 22.002 20.2989 22.002 20.83C22.002 21.3612 21.791 21.8706 21.4154 22.2461C21.0399 22.6217 20.5305 22.8327 19.9993 22.8327Z" fill="white"/>
<path d="M23.204 18.3533C23.6009 18.3533 23.9227 18.0316 23.9227 17.6347C23.9227 17.2378 23.6009 16.916 23.204 16.916C22.8071 16.916 22.4853 17.2378 22.4853 17.6347C22.4853 18.0316 22.8071 18.3533 23.204 18.3533Z" fill="white"/>
<path d="M25.6887 16.9037C25.5343 16.5051 25.2985 16.1432 24.9962 15.841C24.694 15.5389 24.3319 15.3032 23.9333 15.149C23.4669 14.9739 22.9741 14.8792 22.476 14.869C21.834 14.841 21.6307 14.833 20.0027 14.833C18.3747 14.833 18.166 14.833 17.5293 14.869C17.0316 14.8787 16.5392 14.9734 16.0733 15.149C15.6746 15.303 15.3125 15.5387 15.0102 15.8408C14.7079 16.143 14.4722 16.505 14.318 16.9037C14.1429 17.3701 14.0484 17.8629 14.0387 18.361C14.01 19.0023 14.0013 19.2057 14.0013 20.8343C14.0013 22.4623 14.0013 22.6697 14.0387 23.3077C14.0487 23.8063 14.1427 24.2983 14.318 24.7657C14.4726 25.1642 14.7086 25.5261 15.011 25.8282C15.3133 26.1303 15.6754 26.3661 16.074 26.5203C16.539 26.7025 17.0316 26.8039 17.5307 26.8203C18.1727 26.8483 18.376 26.857 20.004 26.857C21.632 26.857 21.8407 26.857 22.4773 26.8203C22.9754 26.8102 23.4682 26.7158 23.9347 26.541C24.3332 26.3865 24.6951 26.1506 24.9973 25.8483C25.2996 25.5461 25.5355 25.1842 25.69 24.7857C25.8653 24.319 25.9593 23.827 25.9693 23.3283C25.998 22.687 26.0067 22.4837 26.0067 20.855C26.0067 19.2263 26.0067 19.0197 25.9693 18.3817C25.9616 17.8765 25.8666 17.3765 25.6887 16.9037ZM24.8767 23.2583C24.8724 23.6425 24.8023 24.0232 24.6693 24.3837C24.5692 24.6429 24.416 24.8783 24.2194 25.0748C24.0228 25.2712 23.7873 25.4244 23.528 25.5243C23.1715 25.6566 22.7949 25.7268 22.4147 25.7317C21.7813 25.761 21.6027 25.7683 19.9787 25.7683C18.3533 25.7683 18.1873 25.7683 17.542 25.7317C17.162 25.727 16.7856 25.6569 16.4293 25.5243C16.1691 25.425 15.9327 25.2721 15.7353 25.0756C15.5379 24.8792 15.3839 24.6434 15.2833 24.3837C15.1523 24.027 15.0822 23.6509 15.076 23.271C15.0473 22.6377 15.0407 22.459 15.0407 20.835C15.0407 19.2103 15.0407 19.0443 15.076 18.3983C15.0803 18.0144 15.1504 17.634 15.2833 17.2737C15.4867 16.7477 15.9033 16.3337 16.4293 16.1323C16.7857 16.0004 17.162 15.9303 17.542 15.925C18.176 15.8963 18.354 15.8883 19.9787 15.8883C21.6033 15.8883 21.77 15.8883 22.4147 15.925C22.7949 15.9296 23.1716 15.9997 23.528 16.1323C23.7873 16.2325 24.0228 16.3858 24.2193 16.5824C24.4159 16.7789 24.5692 17.0144 24.6693 17.2737C24.8004 17.6303 24.8705 18.0064 24.8767 18.3863C24.9053 19.0203 24.9127 19.1983 24.9127 20.823C24.9127 22.447 24.9127 22.6217 24.884 23.259H24.8767V23.2583Z" fill="white"/>
</svg>
