<svg width="17" height="16" viewBox="0 0 17 16" fill="none" xmlns="http://www.w3.org/2000/svg">
<path d="M16.978 6.30381C16.9253 6.14251 16.7871 6.02729 16.6192 6.00096L11.6155 5.2899L9.36378 0.763496C9.28807 0.612067 9.13334 0.516602 8.96546 0.516602C8.79757 0.516602 8.64285 0.612067 8.56713 0.766788L6.34508 5.30636L1.34135 6.05034C1.17346 6.07667 1.0352 6.19189 0.982526 6.35319C0.929855 6.5145 0.975942 6.69226 1.09774 6.80748L4.72874 10.3266L3.8893 15.3105C3.85967 15.4784 3.9288 15.6463 4.06706 15.7451C4.14278 15.801 4.23495 15.8307 4.32713 15.8307C4.39955 15.8307 4.46868 15.8142 4.53452 15.778L9.00167 13.4111L13.482 15.7517C13.5478 15.7846 13.617 15.801 13.6861 15.801C13.9297 15.801 14.1305 15.6002 14.1305 15.3566C14.1305 15.3204 14.1272 15.2875 14.1173 15.2546L13.2515 10.3002L16.8595 6.76139C16.9879 6.64288 17.0307 6.46512 16.978 6.30381Z" fill="#4C40F7"/>
</svg>
