<svg width="17" height="16" viewBox="0 0 17 16" fill="none" xmlns="http://www.w3.org/2000/svg">
<path d="M16.017 6.14073C15.9643 5.97943 15.8261 5.86421 15.6582 5.83787L10.6545 5.12681L8.40278 0.60041C8.32707 0.448981 8.17235 0.353516 8.00446 0.353516C7.83657 0.353516 7.68185 0.448981 7.60613 0.603703L5.38408 5.14327L0.380347 5.88725C0.212459 5.91359 0.0741979 6.0288 0.0215271 6.19011C-0.0311438 6.35141 0.0149432 6.52918 0.136745 6.6444L3.76774 10.1635L2.9283 15.1474C2.89867 15.3153 2.9678 15.4832 3.10607 15.582C3.18178 15.6379 3.27395 15.6676 3.36613 15.6676C3.43855 15.6676 3.50768 15.6511 3.57352 15.6149L8.04067 13.248L12.521 15.5886C12.5868 15.6215 12.656 15.6379 12.7251 15.6379C12.9687 15.6379 13.1695 15.4371 13.1695 15.1935C13.1695 15.1573 13.1662 15.1244 13.1563 15.0915L12.2906 10.1371L15.8985 6.59831C16.0269 6.4798 16.0697 6.30203 16.017 6.14073Z" fill="#4C40F7"/>
</svg>
