<svg width="40" height="41" viewBox="0 0 40 41" fill="none" xmlns="http://www.w3.org/2000/svg">
<rect y="0.830078" width="40" height="40" rx="20" fill="#4C40F7"/>
<path d="M25.0887 18.1618C25.0973 18.2784 25.0973 18.3944 25.0973 18.5104C25.0973 22.0604 22.3953 26.1511 17.4573 26.1511C15.936 26.1511 14.5227 25.7104 13.3333 24.9451C13.5493 24.9698 13.7573 24.9784 13.982 24.9784C15.1907 24.9814 16.3651 24.5772 17.316 23.8311C16.7556 23.821 16.2124 23.6361 15.7622 23.3023C15.3119 22.9684 14.9772 22.5024 14.8047 21.9691C14.9707 21.9938 15.1373 22.0104 15.312 22.0104C15.5527 22.0104 15.7947 21.9771 16.0193 21.9191C15.4112 21.7963 14.8643 21.4667 14.4718 20.9862C14.0792 20.5058 13.8651 19.9042 13.866 19.2838V19.2504C14.224 19.4498 14.6393 19.5744 15.0793 19.5911C14.7107 19.3462 14.4085 19.0138 14.1996 18.6236C13.9906 18.2335 13.8816 17.7977 13.882 17.3551C13.882 16.8564 14.0147 16.3991 14.2473 16.0004C14.9221 16.8304 15.7637 17.5095 16.7176 17.9935C17.6715 18.4776 18.7164 18.7559 19.7847 18.8104C19.7433 18.6104 19.718 18.4031 19.718 18.1951C19.7178 17.8424 19.7872 17.4931 19.9221 17.1673C20.057 16.8414 20.2547 16.5453 20.5041 16.2959C20.7535 16.0465 21.0496 15.8487 21.3755 15.7138C21.7014 15.5789 22.0507 15.5096 22.4033 15.5098C23.1767 15.5098 23.8747 15.8338 24.3653 16.3578C24.9665 16.2415 25.543 16.022 26.0693 15.7091C25.869 16.3296 25.4492 16.8558 24.8887 17.1891C25.4219 17.1283 25.943 16.9881 26.4347 16.7731C26.0674 17.3085 25.6124 17.778 25.0887 18.1618Z" fill="white"/>
</svg>
